# xmcd CD database file
#
# Track frame offsets:
#	150
#	13279
#	32868
#	42392
#	51328
#	63885
#	74955
#	89812
#	101508
#	111492
#	120125
#	130747
#	142464
#	153753
#	163883
#
# Disc length: 2292 seconds
#
# Revision: 0
# Processed by: cddbd v1.5.2PL0 Copyright (c) Steve Scherf et al.
# Submitted via: CDex 1.91
#
DISCID=e508f20f
DTITLE=Christian Masser - Cool Water
DYEAR=1900
DGENRE=Blues
TTITLE0=Christian Masser - 25 Minutes To Go
TTITLE1=? - ? - Banks Of The Ohio
TTITLE2=? - Family Bible
TTITLE3=? - Funny How Time Slips Away
TTITLE4=? - Dont Take Your Guns To Town
TTITLE5=? - I Still Miss Someone
TTITLE6=? - Cool Water
TTITLE7=? - Help Me Make It Through The Night
TTITLE8=? - There You Go
TTITLE9=? - Reason To Believe
TTITLE10=? - Sweeter Than The Flowers
TTITLE11=? - Cocain Blues
TTITLE12=? - Prisoners Song 
TTITLE13=? - These Hands
TTITLE14=Whippoorwill
EXTD=
EXTT0=
EXTT1=
EXTT2=
EXTT3=
EXTT4=
EXTT5=
EXTT6=
EXTT7=
EXTT8=
EXTT9=
EXTT10=
EXTT11=
EXTT12=
EXTT13=
EXTT14=
PLAYORDER=
